# xmcd
#
# Track frame offsets:
#	150
#	14543
#	31829
#	47956
#	64688
#	82855
#	96305
#	110330
#	124738
#	140709
#	161481
#	178107
#
# Disc length: 2621 seconds
#
# Revision: 0
# Processed by: cddbd v1.5.2PL0 Copyright (c) Steve Scherf et al.
# Submitted via: EZCDAudioConverter 3.1.7.1
#
DISCID=9e0a3b0c
DTITLE=รวมศิลปิน - Reason of Love Vol.2
DYEAR=2015
DGENRE=
TTITLE0=กั้ง วรกร - เพลงของเธอ (ลา..ลา)
TTITLE1=โรส ศิรินทิพย์ - อย่าเปลี่ยนไป (feat.ต้อล วันธงชัย)
TTITLE2=แม็กซ์ เจนมานะ - แค่ได้รัก
TTITLE3=25 hours - ฟ้าส่งฉันมา
TTITLE4=เมฆ จิรกิตติ์ - ไม่อยากพูดว่ารักให้รู้สึกดี
TTITLE5=วัชราวลี - Avenue (New Version)
TTITLE6=Sin - ลมซ่อนรัก
TTITLE7=Lipta - ขี้หึง (feat.โจ๊ก So Cool)
TTITLE8=Zeal - รักเธอทั้งชีวิต
TTITLE9=เก้า จิรายุ - รักเธอคนเดิม
TTITLE10=คิว Flure - ไว้ใจฉันได้เสมอ
TTITLE11=พุฒิ พุฒิชัย - แสนล้านนาที
EXTD=
EXTT0=
EXTT1=
EXTT2=
EXTT3=
EXTT4=
EXTT5=
EXTT6=
EXTT7=
EXTT8=
EXTT9=
EXTT10=
EXTT11=
PLAYORDER=
